<svg width="229" height="18" viewBox="0 0 229 18" fill="none" xmlns="http://www.w3.org/2000/svg">
<path d="M6.316 7.256C6.72133 7.32 7.08933 7.48533 7.42 7.752C7.76133 8.01867 8.028 8.34933 8.22 8.744C8.42267 9.13867 8.524 9.56 8.524 10.008C8.524 10.5733 8.38 11.0853 8.092 11.544C7.804 11.992 7.38267 12.3493 6.828 12.616C6.284 12.872 5.63867 13 4.892 13H0.732V1.848H4.732C5.48933 1.848 6.13467 1.976 6.668 2.232C7.20133 2.47733 7.60133 2.81333 7.868 3.24C8.13467 3.66667 8.268 4.14667 8.268 4.68C8.268 5.34133 8.08667 5.89067 7.724 6.328C7.372 6.75467 6.90267 7.064 6.316 7.256ZM2.188 6.664H4.636C5.31867 6.664 5.84667 6.504 6.22 6.184C6.59333 5.864 6.78 5.42133 6.78 4.856C6.78 4.29067 6.59333 3.848 6.22 3.528C5.84667 3.208 5.308 3.048 4.604 3.048H2.188V6.664ZM4.764 11.8C5.48933 11.8 6.05467 11.6293 6.46 11.288C6.86533 10.9467 7.068 10.472 7.068 9.864C7.068 9.24533 6.85467 8.76 6.428 8.408C6.00133 8.04533 5.43067 7.864 4.716 7.864H2.188V11.8H4.764ZM18.0965 4.232L12.8165 17.128H11.3125L13.0405 12.904L9.5045 4.232H11.1205L13.8725 11.336L16.5925 4.232H18.0965ZM39.0417 1.768L36.1138 13H32.8018L31.0098 5.608L29.1538 13H25.8418L22.9938 1.768H25.9218L27.5378 9.944L29.5378 1.768H32.5458L34.4658 9.944L36.0978 1.768H39.0417ZM39.8699 8.52C39.8699 7.60267 40.0405 6.79733 40.3819 6.104C40.7339 5.41067 41.2085 4.87733 41.8059 4.504C42.4032 4.13067 43.0699 3.944 43.8059 3.944C44.4352 3.944 44.9845 4.072 45.4539 4.328C45.9339 4.584 46.3019 4.92 46.5579 5.336V4.072H49.2939V13H46.5579V11.736C46.2912 12.152 45.9179 12.488 45.4379 12.744C44.9685 13 44.4192 13.128 43.7899 13.128C43.0645 13.128 42.4032 12.9413 41.8059 12.568C41.2085 12.184 40.7339 11.6453 40.3819 10.952C40.0405 10.248 39.8699 9.43733 39.8699 8.52ZM46.5579 8.536C46.5579 7.85333 46.3659 7.31467 45.9819 6.92C45.6085 6.52533 45.1499 6.328 44.6059 6.328C44.0619 6.328 43.5979 6.52533 43.2139 6.92C42.8405 7.304 42.6539 7.83733 42.6539 8.52C42.6539 9.20267 42.8405 9.74667 43.2139 10.152C43.5979 10.5467 44.0619 10.744 44.6059 10.744C45.1499 10.744 45.6085 10.5467 45.9819 10.152C46.3659 9.75733 46.5579 9.21867 46.5579 8.536ZM56.7613 3.976C57.7853 3.976 58.6066 4.31733 59.2253 5C59.8439 5.672 60.1533 6.6 60.1533 7.784V13H57.4333V8.152C57.4333 7.55467 57.2786 7.09067 56.9693 6.76C56.6599 6.42933 56.2439 6.264 55.7213 6.264C55.1986 6.264 54.7826 6.42933 54.4733 6.76C54.1639 7.09067 54.0093 7.55467 54.0093 8.152V13H51.2733V1.16H54.0093V5.272C54.2866 4.87733 54.6653 4.56267 55.1453 4.328C55.6253 4.09333 56.1639 3.976 56.7613 3.976ZM63.4305 3.144C62.9505 3.144 62.5558 3.00533 62.2465 2.728C61.9478 2.44 61.7985 2.088 61.7985 1.672C61.7985 1.24533 61.9478 0.893333 62.2465 0.615999C62.5558 0.327999 62.9505 0.183999 63.4305 0.183999C63.8998 0.183999 64.2838 0.327999 64.5825 0.615999C64.8918 0.893333 65.0465 1.24533 65.0465 1.672C65.0465 2.088 64.8918 2.44 64.5825 2.728C64.2838 3.00533 63.8998 3.144 63.4305 3.144ZM64.7905 4.072V13H62.0545V4.072H64.7905ZM66.2293 8.52C66.2293 7.60267 66.3999 6.79733 66.7413 6.104C67.0933 5.41067 67.5679 4.87733 68.1653 4.504C68.7626 4.13067 69.4293 3.944 70.1653 3.944C70.7519 3.944 71.2853 4.06667 71.7653 4.312C72.2559 4.55733 72.6399 4.888 72.9173 5.304V1.16H75.6533V13H72.9173V11.72C72.6613 12.1467 72.2933 12.488 71.8133 12.744C71.3439 13 70.7946 13.128 70.1653 13.128C69.4293 13.128 68.7626 12.9413 68.1653 12.568C67.5679 12.184 67.0933 11.6453 66.7413 10.952C66.3999 10.248 66.2293 9.43733 66.2293 8.52ZM72.9173 8.536C72.9173 7.85333 72.7253 7.31467 72.3413 6.92C71.9679 6.52533 71.5093 6.328 70.9653 6.328C70.4213 6.328 69.9573 6.52533 69.5733 6.92C69.1999 7.304 69.0133 7.83733 69.0133 8.52C69.0133 9.20267 69.1999 9.74667 69.5733 10.152C69.9573 10.5467 70.4213 10.744 70.9653 10.744C71.5093 10.744 71.9679 10.5467 72.3413 10.152C72.7253 9.75733 72.9173 9.21867 72.9173 8.536ZM88.0153 11.016H83.8233L83.1513 13H80.2873L84.3513 1.768H87.5193L91.5833 13H88.6873L88.0153 11.016ZM87.3113 8.904L85.9193 4.792L84.5433 8.904H87.3113ZM95.5561 5.56C95.8761 5.06933 96.2761 4.68533 96.7561 4.408C97.2361 4.12 97.7695 3.976 98.3561 3.976V6.872H97.6041C96.9215 6.872 96.4095 7.02133 96.0681 7.32C95.7268 7.608 95.5561 8.12 95.5561 8.856V13H92.8201V4.072H95.5561V5.56ZM101.04 3.144C100.56 3.144 100.165 3.00533 99.8559 2.728C99.5572 2.44 99.4079 2.088 99.4079 1.672C99.4079 1.24533 99.5572 0.893333 99.8559 0.615999C100.165 0.327999 100.56 0.183999 101.04 0.183999C101.509 0.183999 101.893 0.327999 102.192 0.615999C102.501 0.893333 102.656 1.24533 102.656 1.672C102.656 2.088 102.501 2.44 102.192 2.728C101.893 3.00533 101.509 3.144 101.04 3.144ZM102.4 4.072V13H99.6639V4.072H102.4ZM110.712 14.696H109.256V0.28H110.712V14.696ZM117.57 7.096C117.57 5.26133 117.869 3.832 118.466 2.808C119.063 1.77333 120.109 1.256 121.602 1.256C123.085 1.256 124.125 1.77333 124.722 2.808C125.319 3.832 125.618 5.26133 125.618 7.096C125.618 8.96267 125.319 10.4133 124.722 11.448C124.125 12.4827 123.085 13 121.602 13C120.109 13 119.063 12.4827 118.466 11.448C117.869 10.4133 117.57 8.96267 117.57 7.096ZM124.178 7.096C124.178 6.168 124.114 5.384 123.986 4.744C123.869 4.09333 123.618 3.57067 123.234 3.176C122.861 2.78133 122.317 2.584 121.602 2.584C120.877 2.584 120.322 2.78133 119.938 3.176C119.565 3.57067 119.314 4.09333 119.186 4.744C119.069 5.384 119.01 6.168 119.01 7.096C119.01 8.056 119.069 8.86133 119.186 9.512C119.314 10.1627 119.565 10.6853 119.938 11.08C120.322 11.4747 120.877 11.672 121.602 11.672C122.317 11.672 122.861 11.4747 123.234 11.08C123.618 10.6853 123.869 10.1627 123.986 9.512C124.114 8.86133 124.178 8.056 124.178 7.096ZM127.585 4.344C127.66 3.36267 128.038 2.59467 128.721 2.04C129.404 1.48533 130.289 1.208 131.377 1.208C132.102 1.208 132.726 1.34133 133.249 1.608C133.782 1.864 134.182 2.216 134.449 2.664C134.726 3.112 134.865 3.61867 134.865 4.184C134.865 4.84533 134.673 5.416 134.289 5.896C133.916 6.376 133.425 6.68533 132.817 6.824V6.904C133.51 7.07467 134.06 7.41067 134.465 7.912C134.87 8.41333 135.073 9.06933 135.073 9.88C135.073 10.488 134.934 11.0373 134.657 11.528C134.38 12.008 133.964 12.3867 133.409 12.664C132.854 12.9413 132.188 13.08 131.409 13.08C130.278 13.08 129.35 12.7867 128.625 12.2C127.9 11.6027 127.494 10.76 127.409 9.672H128.817C128.892 10.312 129.153 10.8347 129.601 11.24C130.049 11.6453 130.646 11.848 131.393 11.848C132.14 11.848 132.705 11.656 133.089 11.272C133.484 10.8773 133.681 10.3707 133.681 9.752C133.681 8.952 133.414 8.376 132.881 8.024C132.348 7.672 131.542 7.496 130.465 7.496H130.097V6.28H130.481C131.462 6.26933 132.204 6.10933 132.705 5.8C133.206 5.48 133.457 4.98933 133.457 4.328C133.457 3.76267 133.27 3.30933 132.897 2.968C132.534 2.62667 132.012 2.456 131.329 2.456C130.668 2.456 130.134 2.62667 129.729 2.968C129.324 3.30933 129.084 3.768 129.009 4.344H127.585ZM152.857 1.928V13H151.401V4.744L147.721 13H146.697L143.001 4.728V13H141.545V1.928H143.113L147.209 11.08L151.305 1.928H152.857ZM154.782 8.584C154.782 7.688 154.963 6.904 155.326 6.232C155.688 5.54933 156.184 5.02133 156.814 4.648C157.454 4.27467 158.163 4.088 158.942 4.088C159.71 4.088 160.376 4.25333 160.942 4.584C161.507 4.91467 161.928 5.33067 162.206 5.832V4.232H163.678V13H162.206V11.368C161.918 11.88 161.486 12.3067 160.91 12.648C160.344 12.9787 159.683 13.144 158.926 13.144C158.147 13.144 157.443 12.952 156.814 12.568C156.184 12.184 155.688 11.6453 155.326 10.952C154.963 10.2587 154.782 9.46933 154.782 8.584ZM162.206 8.6C162.206 7.93867 162.072 7.36267 161.806 6.872C161.539 6.38133 161.176 6.008 160.718 5.752C160.27 5.48533 159.774 5.352 159.23 5.352C158.686 5.352 158.19 5.48 157.742 5.736C157.294 5.992 156.936 6.36533 156.67 6.856C156.403 7.34667 156.27 7.92267 156.27 8.584C156.27 9.256 156.403 9.84267 156.67 10.344C156.936 10.8347 157.294 11.2133 157.742 11.48C158.19 11.736 158.686 11.864 159.23 11.864C159.774 11.864 160.27 11.736 160.718 11.48C161.176 11.2133 161.539 10.8347 161.806 10.344C162.072 9.84267 162.206 9.26133 162.206 8.6ZM167.594 5.656C167.85 5.15467 168.213 4.76533 168.682 4.488C169.162 4.21067 169.744 4.072 170.426 4.072V5.576H170.042C168.41 5.576 167.594 6.46133 167.594 8.232V13H166.138V4.232H167.594V5.656ZM171.563 8.6C171.563 7.69333 171.744 6.904 172.107 6.232C172.47 5.54933 172.971 5.02133 173.611 4.648C174.262 4.27467 175.003 4.088 175.835 4.088C176.912 4.088 177.798 4.34933 178.491 4.872C179.195 5.39467 179.659 6.12 179.883 7.048H178.315C178.166 6.51467 177.872 6.09333 177.435 5.784C177.008 5.47467 176.475 5.32 175.835 5.32C175.003 5.32 174.331 5.608 173.819 6.184C173.307 6.74933 173.051 7.55467 173.051 8.6C173.051 9.656 173.307 10.472 173.819 11.048C174.331 11.624 175.003 11.912 175.835 11.912C176.475 11.912 177.008 11.7627 177.435 11.464C177.862 11.1653 178.155 10.7387 178.315 10.184H179.883C179.648 11.08 179.179 11.8 178.475 12.344C177.771 12.8773 176.891 13.144 175.835 13.144C175.003 13.144 174.262 12.9573 173.611 12.584C172.971 12.2107 172.47 11.6827 172.107 11C171.744 10.3173 171.563 9.51733 171.563 8.6ZM186.178 4.072C186.839 4.072 187.436 4.216 187.97 4.504C188.503 4.78133 188.919 5.20267 189.218 5.768C189.527 6.33333 189.682 7.02133 189.682 7.832V13H188.242V8.04C188.242 7.16533 188.023 6.49867 187.586 6.04C187.148 5.57067 186.551 5.336 185.794 5.336C185.026 5.336 184.412 5.576 183.954 6.056C183.506 6.536 183.282 7.23467 183.282 8.152V13H181.826V1.16H183.282V5.48C183.57 5.032 183.964 4.68533 184.466 4.44C184.978 4.19467 185.548 4.072 186.178 4.072ZM195.91 11.832C197.264 10.744 198.326 9.85333 199.094 9.16C199.862 8.456 200.507 7.72533 201.03 6.968C201.563 6.2 201.83 5.448 201.83 4.712C201.83 4.01867 201.659 3.47467 201.318 3.08C200.987 2.67467 200.448 2.472 199.702 2.472C198.976 2.472 198.411 2.70133 198.006 3.16C197.611 3.608 197.398 4.21067 197.366 4.968H195.958C196 3.77333 196.363 2.85067 197.046 2.2C197.728 1.54933 198.608 1.224 199.686 1.224C200.784 1.224 201.654 1.528 202.294 2.136C202.944 2.744 203.27 3.58133 203.27 4.648C203.27 5.53333 203.003 6.39733 202.47 7.24C201.947 8.072 201.35 8.808 200.678 9.448C200.006 10.0773 199.147 10.8133 198.102 11.656H203.606V12.872H195.91V11.832ZM205.289 7.096C205.289 5.26133 205.588 3.832 206.185 2.808C206.782 1.77333 207.828 1.256 209.321 1.256C210.804 1.256 211.844 1.77333 212.441 2.808C213.038 3.832 213.337 5.26133 213.337 7.096C213.337 8.96267 213.038 10.4133 212.441 11.448C211.844 12.4827 210.804 13 209.321 13C207.828 13 206.782 12.4827 206.185 11.448C205.588 10.4133 205.289 8.96267 205.289 7.096ZM211.897 7.096C211.897 6.168 211.833 5.384 211.705 4.744C211.588 4.09333 211.337 3.57067 210.953 3.176C210.58 2.78133 210.036 2.584 209.321 2.584C208.596 2.584 208.041 2.78133 207.657 3.176C207.284 3.57067 207.033 4.09333 206.905 4.744C206.788 5.384 206.729 6.168 206.729 7.096C206.729 8.056 206.788 8.86133 206.905 9.512C207.033 10.1627 207.284 10.6853 207.657 11.08C208.041 11.4747 208.596 11.672 209.321 11.672C210.036 11.672 210.58 11.4747 210.953 11.08C211.337 10.6853 211.588 10.1627 211.705 9.512C211.833 8.86133 211.897 8.056 211.897 7.096ZM214.952 2.76V1.432H217.96V13H216.488V2.76H214.952ZM222.333 9.896C222.439 10.504 222.685 10.9733 223.069 11.304C223.463 11.6347 223.991 11.8 224.653 11.8C225.538 11.8 226.189 11.4533 226.605 10.76C227.031 10.0667 227.234 8.89867 227.213 7.256C226.989 7.736 226.615 8.11467 226.093 8.392C225.57 8.65867 224.989 8.792 224.349 8.792C223.634 8.792 222.994 8.648 222.429 8.36C221.874 8.06133 221.437 7.62933 221.117 7.064C220.797 6.49867 220.637 5.816 220.637 5.016C220.637 3.87467 220.967 2.95733 221.629 2.264C222.29 1.56 223.229 1.208 224.445 1.208C225.938 1.208 226.983 1.69333 227.581 2.664C228.189 3.63467 228.493 5.08 228.493 7C228.493 8.344 228.37 9.45333 228.125 10.328C227.89 11.2027 227.485 11.8693 226.909 12.328C226.343 12.7867 225.565 13.016 224.573 13.016C223.485 13.016 222.637 12.7227 222.029 12.136C221.421 11.5493 221.074 10.8027 220.989 9.896H222.333ZM224.589 7.56C225.303 7.56 225.89 7.34133 226.349 6.904C226.807 6.456 227.037 5.85333 227.037 5.096C227.037 4.296 226.813 3.65067 226.365 3.16C225.917 2.66933 225.287 2.424 224.477 2.424C223.73 2.424 223.133 2.65867 222.685 3.128C222.247 3.59733 222.029 4.216 222.029 4.984C222.029 5.76267 222.247 6.38667 222.685 6.856C223.122 7.32533 223.757 7.56 224.589 7.56Z" fill="#22343D"/>
</svg>
